<svg width="22" height="16" viewBox="0 0 22 16" fill="none" xmlns="http://www.w3.org/2000/svg">
<path d="M13.6333 5.7769L16.2068 8.35139C16.7962 8.94093 17.7517 8.94093 18.341 8.35139L20.9146 5.7769C21.5039 5.18735 21.5039 4.23151 20.9146 3.64196L18.341 1.06747C17.7517 0.477924 16.7962 0.477924 16.2068 1.06747L13.6333 3.64196C13.044 4.23151 13.044 5.18735 13.6333 5.7769Z" fill="#0F0F0F"/>
<path d="M14.3187 10.2289L11.7444 7.65365C11.2784 7.18744 10.583 7.09124 10.0208 7.36134C9.61395 7.55745 9.14051 7.63145 8.72625 7.45014C8.40446 7.31324 8.16774 7.10234 8.0013 6.81003C7.74608 6.35862 7.79786 5.81101 8.01979 5.3448C8.2861 4.78609 8.18623 4.09417 7.72389 3.63166L5.14957 1.05641C4.56147 0.468099 3.60719 0.468099 3.0154 1.05641L0.441074 3.63166C-0.147025 4.21998 -0.147025 5.1746 0.441074 5.76661L3.0154 8.34186C3.47774 8.80437 4.1657 8.90427 4.72421 8.63787C5.19395 8.41586 5.74137 8.36036 6.19261 8.61937C6.48481 8.78587 6.69564 9.02638 6.83249 9.34828C7.01003 9.76269 6.93976 10.2326 6.74372 10.6359C6.47002 11.1983 6.56988 11.8939 7.03592 12.3601L9.61025 14.9354C10.1983 15.5237 11.1526 15.5237 11.7444 14.9354L14.3187 12.3601C14.9068 11.7718 14.9068 10.8172 14.3187 10.2252V10.2289Z" fill="#0F0F0F"/>
</svg>

