<svg width="102" height="102" viewBox="0 0 102 102" fill="none" xmlns="http://www.w3.org/2000/svg">
<rect width="101.49" height="101.49" rx="27.3243" fill="#3905F5"/>
<path d="M60.1828 47.8648L68.1415 55.8263C69.964 57.6495 72.9188 57.6495 74.7413 55.8263L82.7 47.8648C84.5225 46.0417 84.5225 43.0857 82.7 41.2626L74.7413 33.3011C72.9188 31.4779 69.964 31.4779 68.1415 33.3011L60.1828 41.2626C58.3604 43.0857 58.3603 46.0417 60.1828 47.8648Z" fill="white"/>
<path d="M62.6254 61.8653L54.6023 53.8402C53.1499 52.3874 50.9827 52.0876 49.2305 52.9293C47.9625 53.5404 46.487 53.771 45.196 53.206C44.1931 52.7794 43.4553 52.1222 42.9366 51.2113C42.1412 49.8046 42.3026 48.0981 42.9942 46.6453C43.8242 44.9042 43.513 42.7481 42.072 41.3068L34.049 33.2817C32.2161 31.4484 29.2421 31.4484 27.3977 33.2817L19.3746 41.3068C17.5418 43.1401 17.5418 46.1149 19.3746 47.9598L27.3977 55.9848C28.8386 57.4261 30.9827 57.7374 32.7233 56.9072C34.1873 56.2154 35.8934 56.0425 37.2997 56.8496C38.2104 57.3685 38.8674 58.1179 39.2939 59.121C39.8473 60.4124 39.6282 61.8768 39.0173 63.1336C38.1643 64.8862 38.4755 67.0539 39.928 68.5067L47.951 76.5318C49.7839 78.3651 52.7579 78.3651 54.6023 76.5318L62.6254 68.5067C64.4582 66.6734 64.4582 63.6986 62.6254 61.8537V61.8653Z" fill="white"/>
</svg>
